<svg
	xmlns="http://www.w3.org/2000/svg" 
	xmlns:xlink="http://www.w3.org/1999/xlink" 
	viewBox="0 0 200 36">
<style type="text/css">
	.st0{fill:#16133D;}
	.st1{fill:none;stroke:#3CB270;stroke-miterlimit:10;}
</style>
<path class="st0" d="M48.1,31c-0.4,0-0.8-0.1-1-0.4c-0.3-0.3-0.4-0.6-0.4-1V7.9c0-0.4,0.1-0.7,0.4-1c0.3-0.3,0.6-0.4,1-0.4h12.3
	c0.4,0,0.7,0.1,1,0.4s0.4,0.6,0.4,1c0,0.4-0.1,0.7-0.4,0.9s-0.6,0.4-1,0.4h-11l0.2-0.3v8.6l-0.2-0.4h9.4c0.4,0,0.7,0.1,1,0.4
	c0.3,0.3,0.4,0.6,0.4,1c0,0.4-0.1,0.7-0.4,0.9c-0.3,0.3-0.6,0.4-1,0.4h-9.5l0.2-0.3v10c0,0.4-0.1,0.7-0.4,1S48.5,31,48.1,31z
	 M67.1,31c-0.4,0-0.7-0.1-1-0.4c-0.3-0.3-0.4-0.6-0.4-1V14.3c0-0.4,0.1-0.7,0.4-1c0.3-0.3,0.6-0.4,1-0.4c0.4,0,0.8,0.1,1,0.4
	c0.3,0.3,0.4,0.6,0.4,1v4.6l-0.4-0.7c0.1-0.7,0.4-1.4,0.7-2.1c0.4-0.7,0.8-1.3,1.4-1.9c0.6-0.6,1.2-1,1.9-1.3
	c0.7-0.3,1.5-0.5,2.4-0.5c0.5,0,1,0.1,1.4,0.4c0.4,0.2,0.7,0.6,0.7,1c0,0.5-0.1,0.9-0.4,1.1c-0.3,0.2-0.5,0.3-0.9,0.3
	c-0.3,0-0.6-0.1-0.9-0.2c-0.3-0.1-0.6-0.2-1.1-0.2c-0.6,0-1.2,0.2-1.8,0.5c-0.6,0.3-1.1,0.7-1.6,1.3c-0.5,0.6-0.9,1.2-1.2,2
	c-0.3,0.7-0.4,1.5-0.4,2.3v8.5c0,0.4-0.1,0.7-0.4,1C67.8,30.9,67.5,31,67.1,31z M87.3,31.4c-1.9,0-3.5-0.4-4.9-1.2s-2.5-1.9-3.3-3.3
	c-0.8-1.4-1.2-3-1.2-4.8c0-2,0.4-3.8,1.2-5.2c0.8-1.4,1.9-2.5,3.1-3.3c1.3-0.8,2.7-1.2,4.1-1.2c1.1,0,2.1,0.2,3.1,0.6
	c1,0.4,1.9,1,2.7,1.8c0.8,0.7,1.4,1.7,1.9,2.7c0.5,1.1,0.7,2.2,0.7,3.5c0,0.4-0.1,0.7-0.4,0.9c-0.3,0.3-0.6,0.4-1,0.4H79.6L79,20
	h13.5l-0.6,0.5v-0.8c-0.1-1-0.4-1.8-1-2.4c-0.5-0.7-1.2-1.2-2-1.6c-0.8-0.4-1.6-0.6-2.4-0.6c-0.7,0-1.4,0.1-2.1,0.4
	c-0.7,0.2-1.3,0.6-1.9,1.2c-0.5,0.5-1,1.2-1.3,2.1c-0.3,0.9-0.5,1.9-0.5,3.1c0,1.4,0.3,2.5,0.8,3.6c0.6,1,1.3,1.8,2.3,2.5
	c1,0.6,2.1,0.9,3.4,0.9c0.8,0,1.5-0.1,2.1-0.3c0.6-0.2,1.1-0.5,1.6-0.8c0.4-0.3,0.8-0.7,1.1-1c0.3-0.2,0.6-0.3,0.9-0.3
	c0.3,0,0.6,0.1,0.8,0.4c0.2,0.2,0.3,0.5,0.3,0.8c0,0.4-0.2,0.7-0.6,1.1c-0.7,0.7-1.5,1.4-2.7,1.9C89.8,31.1,88.6,31.4,87.3,31.4z
	 M107.4,31.4c-1.9,0-3.5-0.4-4.9-1.2c-1.4-0.8-2.5-1.9-3.3-3.3c-0.8-1.4-1.2-3-1.2-4.8c0-2,0.4-3.8,1.2-5.2c0.8-1.4,1.9-2.5,3.2-3.3
	c1.3-0.8,2.7-1.2,4.1-1.2c1.1,0,2.1,0.2,3.1,0.6c1,0.4,1.9,1,2.7,1.8c0.8,0.7,1.4,1.7,1.9,2.7c0.5,1.1,0.7,2.2,0.7,3.5
	c0,0.4-0.1,0.7-0.4,0.9c-0.3,0.3-0.6,0.4-1,0.4H99.6L99,20h13.5l-0.6,0.5v-0.8c-0.1-1-0.4-1.8-1-2.4c-0.5-0.7-1.2-1.2-2-1.6
	c-0.8-0.4-1.6-0.6-2.5-0.6c-0.7,0-1.4,0.1-2.1,0.4c-0.7,0.2-1.3,0.6-1.9,1.2c-0.5,0.5-1,1.2-1.3,2.1c-0.3,0.9-0.5,1.9-0.5,3.1
	c0,1.4,0.3,2.5,0.8,3.6c0.6,1,1.3,1.8,2.3,2.5c1,0.6,2.1,0.9,3.4,0.9c0.8,0,1.5-0.1,2.1-0.3c0.6-0.2,1.1-0.5,1.6-0.8
	c0.4-0.3,0.8-0.7,1.1-1c0.3-0.2,0.6-0.3,0.9-0.3c0.3,0,0.6,0.1,0.8,0.4c0.2,0.2,0.3,0.5,0.3,0.8c0,0.4-0.2,0.7-0.6,1.1
	c-0.7,0.7-1.5,1.4-2.7,1.9C109.8,31.1,108.6,31.4,107.4,31.4z M127.8,12.6c1.5,0,2.8,0.3,3.6,1c0.9,0.7,1.6,1.5,1.9,2.7
	c0.4,1.1,0.6,2.3,0.6,3.7v9.6c0,0.4-0.1,0.7-0.4,1c-0.3,0.3-0.6,0.4-1,0.4s-0.7-0.1-1-0.4c-0.3-0.3-0.4-0.6-0.4-1V20
	c0-0.9-0.1-1.7-0.4-2.4c-0.3-0.7-0.7-1.3-1.3-1.7c-0.6-0.4-1.4-0.7-2.4-0.7c-1,0-1.8,0.2-2.6,0.7c-0.8,0.4-1.4,1-1.9,1.7
	c-0.5,0.7-0.7,1.5-0.7,2.4v9.6c0,0.4-0.1,0.7-0.4,1c-0.3,0.3-0.6,0.4-1,0.4c-0.4,0-0.7-0.1-1-0.4c-0.3-0.3-0.4-0.6-0.4-1V6.5
	c0-0.4,0.1-0.7,0.4-1c0.3-0.3,0.6-0.4,1-0.4c0.4,0,0.8,0.1,1,0.4c0.3,0.3,0.4,0.6,0.4,1V17l-0.7,0.8c0.1-0.6,0.4-1.2,0.8-1.8
	c0.4-0.6,0.9-1.2,1.5-1.7c0.6-0.5,1.3-0.9,2-1.2C126.2,12.8,127,12.6,127.8,12.6z M154.1,12.7c0.4,0,0.7,0.1,1,0.4
	c0.3,0.3,0.4,0.6,0.4,1v15.4c0,0.4-0.1,0.7-0.4,1c-0.3,0.3-0.6,0.4-1,0.4c-0.4,0-0.8-0.1-1-0.4c-0.3-0.3-0.4-0.6-0.4-1v-3.3l0.7-0.1
	c0,0.5-0.2,1.1-0.5,1.7c-0.4,0.6-0.8,1.2-1.4,1.7c-0.6,0.5-1.3,0.9-2.2,1.3c-0.8,0.3-1.7,0.5-2.7,0.5c-1.6,0-3-0.4-4.3-1.2
	c-1.3-0.8-2.3-2-3-3.4c-0.7-1.4-1.1-3-1.1-4.9c0-1.8,0.4-3.5,1.1-4.9c0.7-1.4,1.8-2.5,3-3.3c1.3-0.8,2.7-1.2,4.2-1.2
	c1,0,1.9,0.2,2.8,0.5c0.9,0.3,1.6,0.8,2.2,1.3c0.7,0.6,1.2,1.2,1.5,1.9c0.4,0.7,0.6,1.4,0.6,2l-0.9-0.2v-3.8c0-0.4,0.1-0.7,0.4-1
	C153.3,12.9,153.7,12.7,154.1,12.7z M146.9,28.8c1.2,0,2.2-0.3,3.1-0.9c0.9-0.6,1.6-1.4,2.1-2.5c0.5-1,0.8-2.2,0.8-3.5
	c0-1.3-0.3-2.4-0.8-3.5c-0.5-1-1.2-1.9-2.1-2.4c-0.9-0.6-1.9-0.9-3.1-0.9c-1.1,0-2.2,0.3-3.1,0.9c-0.9,0.6-1.6,1.4-2.1,2.4
	c-0.5,1-0.8,2.2-0.8,3.5c0,1.3,0.2,2.5,0.7,3.5c0.5,1,1.2,1.8,2.1,2.5C144.7,28.5,145.7,28.8,146.9,28.8z M169.7,12.4
	c1.6,0,2.8,0.3,3.7,1c0.9,0.7,1.6,1.5,1.9,2.6c0.4,1.1,0.6,2.3,0.6,3.7v9.8c0,0.4-0.1,0.7-0.4,1c-0.3,0.3-0.6,0.4-1,0.4
	c-0.4,0-0.7-0.1-1-0.4c-0.3-0.3-0.4-0.6-0.4-1v-9.8c0-0.9-0.1-1.7-0.4-2.4c-0.3-0.7-0.7-1.3-1.3-1.7c-0.6-0.4-1.4-0.7-2.5-0.7
	c-1,0-1.9,0.2-2.7,0.7c-0.8,0.4-1.5,1-2,1.7c-0.5,0.7-0.7,1.5-0.7,2.4v9.8c0,0.4-0.1,0.7-0.4,1c-0.3,0.3-0.6,0.4-1,0.4
	c-0.4,0-0.7-0.1-1-0.4c-0.3-0.3-0.4-0.6-0.4-1V14.3c0-0.4,0.1-0.7,0.4-1c0.3-0.3,0.6-0.4,1-0.4c0.4,0,0.8,0.1,1,0.4
	c0.3,0.3,0.4,0.6,0.4,1v2.5l-0.7,0.8c0.1-0.6,0.4-1.2,0.8-1.8c0.4-0.6,0.9-1.2,1.6-1.7c0.6-0.5,1.3-0.9,2.1-1.2
	C168,12.6,168.8,12.4,169.7,12.4z M196,5.1c0.4,0,0.7,0.1,1,0.4c0.3,0.3,0.4,0.6,0.4,1v23.1c0,0.4-0.1,0.7-0.4,1
	c-0.3,0.3-0.6,0.4-1,0.4c-0.4,0-0.8-0.1-1-0.4c-0.3-0.3-0.4-0.6-0.4-1v-3.3l0.7-0.2c0,0.6-0.2,1.2-0.5,1.8c-0.4,0.6-0.8,1.2-1.4,1.7
	c-0.6,0.5-1.3,1-2.2,1.3c-0.8,0.3-1.7,0.5-2.7,0.5c-1.6,0-3-0.4-4.3-1.2c-1.3-0.8-2.3-1.9-3-3.4c-0.7-1.4-1.1-3-1.1-4.9
	c0-1.8,0.4-3.5,1.1-4.9c0.7-1.4,1.8-2.5,3-3.3c1.3-0.8,2.7-1.2,4.2-1.2c1,0,1.9,0.2,2.8,0.5c0.9,0.3,1.6,0.8,2.2,1.3
	c0.7,0.6,1.2,1.2,1.5,1.9c0.4,0.7,0.6,1.4,0.6,2l-0.9-0.2V6.5c0-0.4,0.1-0.7,0.4-1C195.3,5.2,195.6,5.1,196,5.1z M188.8,28.8
	c1.2,0,2.2-0.3,3.1-0.9c0.9-0.6,1.6-1.4,2.1-2.5c0.5-1,0.8-2.2,0.8-3.5c0-1.3-0.3-2.5-0.8-3.5c-0.5-1-1.2-1.8-2.1-2.4
	c-0.9-0.6-1.9-0.9-3.1-0.9c-1.1,0-2.2,0.3-3.1,0.9c-0.9,0.6-1.6,1.4-2.1,2.4c-0.5,1-0.8,2.2-0.8,3.5c0,1.3,0.3,2.5,0.8,3.5
	c0.5,1,1.2,1.8,2.1,2.5C186.6,28.5,187.7,28.8,188.8,28.8z"/>
<path class="st1" d="M2.3,10.8 M4.8,18c-2.6,1.4-4.2,4.2-4.2,7.2c0,4.6,3.7,8.3,8.3,8.3c3.1,0,5.8-1.7,7.2-4.3
	c1.4,2.6,4.2,4.3,7.2,4.3c4.6,0,8.3-3.7,8.3-8.3c0-3.1-1.6-5.8-4.2-7.2c2.6-1.4,4.2-4.2,4.2-7.2c0-4.6-3.7-8.3-8.3-8.3
	c-3.1,0-5.8,1.7-7.2,4.3c-1.4-2.6-4.2-4.3-7.2-4.3c-4.6,0-8.3,3.7-8.3,8.3C0.6,13.8,2.2,16.6,4.8,18z"/>
</svg>
